<svg width="95" height="23" viewBox="0 0 95 23" fill="none" xmlns="http://www.w3.org/2000/svg">
<path d="M9.72 18.288C8.44 18.288 7.256 18.064 6.168 17.616C5.096 17.168 4.152 16.544 3.336 15.744C2.52 14.944 1.888 14.016 1.44 12.96C0.992 11.888 0.768 10.736 0.768 9.504C0.768 8.256 0.992 7.104 1.44 6.048C1.888 4.992 2.512 4.072 3.312 3.288C4.112 2.488 5.048 1.872 6.12 1.44C7.208 0.991999 8.392 0.767999 9.672 0.767999C10.936 0.767999 12.104 0.991999 13.176 1.44C14.264 1.872 15.208 2.488 16.008 3.288C16.824 4.072 17.456 5 17.904 6.072C18.352 7.128 18.576 8.28 18.576 9.528C18.576 10.76 18.352 11.912 17.904 12.984C17.456 14.04 16.832 14.968 16.032 15.768C15.232 16.552 14.288 17.168 13.2 17.616C12.128 18.064 10.968 18.288 9.72 18.288ZM9.672 14.856C10.68 14.856 11.56 14.632 12.312 14.184C13.08 13.736 13.672 13.112 14.088 12.312C14.504 11.496 14.712 10.56 14.712 9.504C14.712 8.704 14.592 7.984 14.352 7.344C14.112 6.688 13.768 6.128 13.32 5.664C12.872 5.184 12.336 4.824 11.712 4.584C11.104 4.328 10.424 4.2 9.672 4.2C8.664 4.2 7.776 4.424 7.008 4.872C6.256 5.304 5.672 5.92 5.256 6.72C4.84 7.504 4.632 8.432 4.632 9.504C4.632 10.304 4.752 11.032 4.992 11.688C5.232 12.344 5.568 12.912 6 13.392C6.448 13.856 6.984 14.216 7.608 14.472C8.232 14.728 8.92 14.856 9.672 14.856ZM25.5999 18.24C24.4959 18.24 23.5119 17.976 22.6479 17.448C21.7999 16.92 21.1279 16.2 20.6319 15.288C20.1519 14.376 19.9119 13.336 19.9119 12.168C19.9119 11 20.1519 9.96 20.6319 9.048C21.1279 8.136 21.7999 7.416 22.6479 6.888C23.5119 6.36 24.4959 6.096 25.5999 6.096C26.3999 6.096 27.1199 6.248 27.7599 6.552C28.4159 6.856 28.9519 7.28 29.3679 7.824C29.7999 8.352 30.0399 8.96 30.0879 9.648V14.568C30.0399 15.256 29.8079 15.88 29.3919 16.44C28.9759 16.984 28.4399 17.424 27.7839 17.76C27.1279 18.08 26.3999 18.24 25.5999 18.24ZM26.2479 14.928C26.7759 14.928 27.2319 14.816 27.6159 14.592C27.9999 14.352 28.3039 14.024 28.5279 13.608C28.7519 13.192 28.8639 12.712 28.8639 12.168C28.8639 11.624 28.7519 11.152 28.5279 10.752C28.3199 10.336 28.0159 10.008 27.6159 9.768C27.2319 9.528 26.7839 9.408 26.2719 9.408C25.7599 9.408 25.3039 9.528 24.9039 9.768C24.5199 10.008 24.2079 10.336 23.9679 10.752C23.7439 11.168 23.6319 11.64 23.6319 12.168C23.6319 12.696 23.7439 13.168 23.9679 13.584C24.1919 14 24.5039 14.328 24.9039 14.568C25.3039 14.808 25.7519 14.928 26.2479 14.928ZM32.3199 18H28.7199V14.856L29.2719 12.024L28.6479 9.192V0.576H32.3199V18ZM38.5054 18.048L33.7054 6.336H37.6654L40.7134 15.624H39.2494L42.3694 6.336H46.3294L41.3374 18.048H38.5054ZM35.5054 22.92L39.0094 15.36L41.3374 18.048L39.2734 22.92H35.5054ZM51.5518 18.288C50.8638 18.288 50.1838 18.2 49.5118 18.024C48.8558 17.848 48.2398 17.6 47.6638 17.28C47.1038 16.944 46.6238 16.56 46.2238 16.128L48.3118 14.016C48.6958 14.432 49.1518 14.76 49.6798 15C50.2078 15.224 50.7838 15.336 51.4078 15.336C51.8398 15.336 52.1678 15.272 52.3918 15.144C52.6318 15.016 52.7518 14.84 52.7518 14.616C52.7518 14.328 52.6078 14.112 52.3198 13.968C52.0478 13.808 51.6958 13.672 51.2638 13.56C50.8318 13.432 50.3758 13.296 49.8958 13.152C49.4158 13.008 48.9598 12.808 48.5278 12.552C48.0958 12.296 47.7438 11.944 47.4718 11.496C47.1998 11.032 47.0638 10.448 47.0638 9.744C47.0638 8.992 47.2558 8.344 47.6398 7.8C48.0238 7.24 48.5678 6.8 49.2718 6.48C49.9758 6.16 50.7998 6 51.7438 6C52.7358 6 53.6478 6.176 54.4798 6.528C55.3278 6.864 56.0158 7.368 56.5438 8.04L54.4558 10.152C54.0878 9.72 53.6718 9.416 53.2078 9.24C52.7598 9.064 52.3198 8.976 51.8878 8.976C51.4718 8.976 51.1598 9.04 50.9518 9.168C50.7438 9.28 50.6398 9.448 50.6398 9.672C50.6398 9.912 50.7758 10.104 51.0478 10.248C51.3198 10.392 51.6718 10.52 52.1038 10.632C52.5358 10.744 52.9918 10.88 53.4718 11.04C53.9518 11.2 54.4078 11.416 54.8398 11.688C55.2718 11.96 55.6238 12.328 55.8958 12.792C56.1678 13.24 56.3038 13.832 56.3038 14.568C56.3038 15.704 55.8718 16.608 55.0078 17.28C54.1598 17.952 53.0078 18.288 51.5518 18.288ZM62.544 18.288C61.856 18.288 61.176 18.2 60.504 18.024C59.848 17.848 59.232 17.6 58.656 17.28C58.096 16.944 57.616 16.56 57.216 16.128L59.304 14.016C59.688 14.432 60.144 14.76 60.672 15C61.2 15.224 61.776 15.336 62.4 15.336C62.832 15.336 63.16 15.272 63.384 15.144C63.624 15.016 63.744 14.84 63.744 14.616C63.744 14.328 63.6 14.112 63.312 13.968C63.04 13.808 62.688 13.672 62.256 13.56C61.824 13.432 61.368 13.296 60.888 13.152C60.408 13.008 59.952 12.808 59.52 12.552C59.088 12.296 58.736 11.944 58.464 11.496C58.192 11.032 58.056 10.448 58.056 9.744C58.056 8.992 58.248 8.344 58.632 7.8C59.016 7.24 59.56 6.8 60.264 6.48C60.968 6.16 61.792 6 62.736 6C63.728 6 64.64 6.176 65.472 6.528C66.32 6.864 67.008 7.368 67.536 8.04L65.448 10.152C65.08 9.72 64.664 9.416 64.2 9.24C63.752 9.064 63.312 8.976 62.88 8.976C62.464 8.976 62.152 9.04 61.944 9.168C61.736 9.28 61.632 9.448 61.632 9.672C61.632 9.912 61.768 10.104 62.04 10.248C62.312 10.392 62.664 10.52 63.096 10.632C63.528 10.744 63.984 10.88 64.464 11.04C64.944 11.2 65.4 11.416 65.832 11.688C66.264 11.96 66.616 12.328 66.888 12.792C67.16 13.24 67.296 13.832 67.296 14.568C67.296 15.704 66.864 16.608 66 17.28C65.152 17.952 64 18.288 62.544 18.288ZM75.0482 18.264C73.7842 18.264 72.6562 18.008 71.6642 17.496C70.6882 16.968 69.9202 16.24 69.3602 15.312C68.8002 14.384 68.5202 13.336 68.5202 12.168C68.5202 11 68.7922 9.96 69.3362 9.048C69.8962 8.12 70.6482 7.392 71.5922 6.864C72.5362 6.336 73.6002 6.072 74.7842 6.072C75.9362 6.072 76.9522 6.32 77.8322 6.816C78.7122 7.312 79.4002 8 79.8962 8.88C80.4082 9.76 80.6642 10.768 80.6642 11.904C80.6642 12.112 80.6482 12.336 80.6162 12.576C80.6002 12.8 80.5602 13.064 80.4962 13.368L70.4402 13.392V10.872L78.9362 10.848L77.3522 11.904C77.3362 11.232 77.2322 10.68 77.0402 10.248C76.8482 9.8 76.5602 9.464 76.1762 9.24C75.8082 9 75.3522 8.88 74.8082 8.88C74.2322 8.88 73.7282 9.016 73.2962 9.288C72.8802 9.544 72.5522 9.912 72.3122 10.392C72.0882 10.872 71.9762 11.456 71.9762 12.144C71.9762 12.832 72.0962 13.424 72.3362 13.92C72.5922 14.4 72.9442 14.776 73.3922 15.048C73.8562 15.304 74.4002 15.432 75.0242 15.432C75.6002 15.432 76.1202 15.336 76.5842 15.144C77.0482 14.936 77.4562 14.632 77.8082 14.232L79.8242 16.248C79.2482 16.92 78.5522 17.424 77.7362 17.76C76.9202 18.096 76.0242 18.264 75.0482 18.264ZM87.3086 18.24C86.2366 18.24 85.2766 17.976 84.4286 17.448C83.5966 16.92 82.9326 16.2 82.4366 15.288C81.9566 14.376 81.7166 13.336 81.7166 12.168C81.7166 11 81.9566 9.96 82.4366 9.048C82.9326 8.136 83.5966 7.416 84.4286 6.888C85.2766 6.36 86.2366 6.096 87.3086 6.096C88.0926 6.096 88.7966 6.248 89.4206 6.552C90.0606 6.856 90.5806 7.28 90.9806 7.824C91.3806 8.352 91.6046 8.96 91.6526 9.648V14.688C91.6046 15.376 91.3806 15.992 90.9806 16.536C90.5966 17.064 90.0846 17.48 89.4446 17.784C88.8046 18.088 88.0926 18.24 87.3086 18.24ZM88.0526 14.928C88.8366 14.928 89.4686 14.672 89.9486 14.16C90.4286 13.632 90.6686 12.968 90.6686 12.168C90.6686 11.624 90.5566 11.144 90.3326 10.728C90.1246 10.312 89.8206 9.992 89.4206 9.768C89.0366 9.528 88.5886 9.408 88.0766 9.408C87.5646 9.408 87.1086 9.528 86.7086 9.768C86.3246 9.992 86.0126 10.312 85.7726 10.728C85.5486 11.144 85.4366 11.624 85.4366 12.168C85.4366 12.696 85.5486 13.168 85.7726 13.584C85.9966 14 86.3086 14.328 86.7086 14.568C87.1086 14.808 87.5566 14.928 88.0526 14.928ZM90.5246 18V14.856L91.0766 12.024L90.5246 9.192V6.336H94.1246V18H90.5246Z" fill="black"/>
</svg>
