<svg width="217" height="47" viewBox="0 0 217 47" fill="none" xmlns="http://www.w3.org/2000/svg">
<ellipse cx="28.4653" cy="23.5" rx="28.4653" ry="23.5" fill="#160B56"/>
<path d="M42.9503 14.01L43.2687 13.6244C43.5875 13.8876 43.7701 14.2557 43.7701 14.6474C43.7701 15.039 43.5875 15.4071 43.2687 15.6703L39.0989 19.1127C39.0989 19.1127 39.0989 19.1127 39.0989 19.1127C38.3785 19.7075 37.243 19.7075 36.5226 19.1127L42.9503 14.01ZM42.9503 14.01L43.2687 13.6244C42.6575 13.1198 41.6991 13.1198 41.0879 13.6244C41.0879 13.6244 41.0879 13.6244 41.0879 13.6244L37.8108 16.3298L36.7174 15.4272L36.7174 15.4272C36.1062 14.9226 35.1478 14.9226 34.5366 15.4272L34.5366 15.4272C34.2178 15.6904 34.0351 16.0585 34.0351 16.4502C34.0351 16.8418 34.2178 17.2099 34.5366 17.4731C34.5366 17.4731 34.5366 17.4732 34.5366 17.4732L36.5226 19.1127L42.9503 14.01ZM36.6153 9.29308L36.6153 9.29307C37.1557 8.66839 38.0121 8.3335 38.9026 8.3335C39.7931 8.3335 40.6495 8.66839 41.19 9.29308L41.19 9.29309L41.398 9.53339C41.398 9.53342 41.398 9.53345 41.398 9.53347C41.7476 9.93758 42.3002 10.1249 42.8308 10.0762L42.7851 9.57827L42.8308 10.0762L43.7578 9.99114C44.6754 9.90698 45.5055 10.1868 46.0718 10.6543C46.6361 11.1202 46.9228 11.7528 46.834 12.4129L46.731 13.1782C46.656 13.7355 46.959 14.235 47.4231 14.5086L47.4231 14.5086L47.7143 14.6803C48.4924 15.1392 48.8399 15.8144 48.8399 16.4501C48.8399 17.0858 48.4924 17.7611 47.7143 18.22L47.4231 18.3917C47.4231 18.3917 47.4231 18.3917 47.4231 18.3917C46.959 18.6653 46.656 19.1649 46.731 19.7221C46.731 19.7221 46.731 19.7221 46.731 19.7221L46.834 20.4874C46.9228 21.1475 46.6361 21.7802 46.0718 22.246C45.5055 22.7136 44.6754 22.9934 43.7578 22.9092L43.7578 22.9092L42.8308 22.8242C42.8308 22.8242 42.8308 22.8242 42.8308 22.8242C42.3002 22.7755 41.7475 22.9627 41.398 23.3669L41.19 23.6073C40.6495 24.2319 39.7931 24.5668 38.9026 24.5668C38.0122 24.5668 37.1558 24.2319 36.6153 23.6073L36.4073 23.3669L36.4073 23.3669C36.0576 22.9628 35.5051 22.7755 34.9744 22.8242C34.9744 22.8242 34.9744 22.8242 34.9744 22.8242L34.0474 22.9092L34.0474 22.9092C33.1299 22.9934 32.2998 22.7136 31.7335 22.246C31.1692 21.7802 30.8825 21.1475 30.9713 20.4874C30.9713 20.4874 30.9713 20.4874 30.9713 20.4874L31.0743 19.7221L30.5804 19.6556L31.0743 19.7221C31.1493 19.1649 30.8462 18.6653 30.3822 18.3917C30.3822 18.3917 30.3821 18.3917 30.3821 18.3917L30.091 18.22L30.091 18.22C29.3129 17.7611 28.9653 17.0858 28.9653 16.4502C28.9653 15.8145 29.3129 15.1392 30.091 14.6803L30.3822 14.5086C30.3822 14.5086 30.3822 14.5086 30.3822 14.5086C30.8462 14.235 31.1493 13.7355 31.0743 13.1782L31.0743 13.1782L30.9713 12.4129C30.9713 12.4129 30.9713 12.4129 30.9713 12.4129C30.8825 11.7528 31.1692 11.1202 31.7335 10.6543C32.2998 10.1868 33.1299 9.90698 34.0474 9.99114L34.9744 10.0762L34.9744 10.0762C35.5052 10.1249 36.0577 9.93753 36.4073 9.53345L36.6153 9.29308Z" stroke="white"/>
<mask id="path-3-outside-1_116_1614" maskUnits="userSpaceOnUse" x="10.121" y="7.92212" width="16" height="22" fill="black">
<rect fill="white" x="10.121" y="7.92212" width="16" height="22"/>
<path d="M11.591 24.0021V23.4021C11.591 22.9821 11.801 22.7721 12.221 22.7721H14.771C15.191 22.7721 15.401 22.9821 15.401 23.4021V23.6421C15.401 24.4021 15.551 24.9221 15.851 25.2021C16.151 25.4821 16.701 25.6221 17.501 25.6221H18.911C19.691 25.6221 20.231 25.4721 20.531 25.1721C20.851 24.8721 21.011 24.3121 21.011 23.4921V23.1321C21.011 22.5521 20.771 22.1121 20.291 21.8121C19.831 21.4921 19.251 21.3021 18.551 21.2421C17.851 21.1821 17.091 21.0721 16.271 20.9121C15.471 20.7321 14.721 20.5121 14.021 20.2521C13.321 19.9721 12.731 19.4421 12.251 18.6621C11.791 17.8621 11.561 16.8421 11.561 15.6021V14.5521C11.561 12.9921 12.001 11.7821 12.881 10.9221C13.761 10.0621 14.981 9.63212 16.541 9.63212H19.541C21.121 9.63212 22.351 10.0621 23.231 10.9221C24.111 11.7821 24.551 12.9921 24.551 14.5521V15.1221C24.551 15.5421 24.341 15.7521 23.921 15.7521H21.371C20.951 15.7521 20.741 15.5421 20.741 15.1221V14.9421C20.741 14.1621 20.591 13.6321 20.291 13.3521C19.991 13.0721 19.441 12.9321 18.641 12.9321H17.471C16.651 12.9321 16.091 13.0921 15.791 13.4121C15.511 13.7121 15.371 14.3121 15.371 15.2121V15.7821C15.371 16.7221 16.191 17.2621 17.831 17.4021C19.531 17.5421 21.041 17.8821 22.361 18.4221C23.061 18.7221 23.641 19.2621 24.101 20.0421C24.581 20.8021 24.821 21.7821 24.821 22.9821V24.0021C24.821 25.5621 24.381 26.7721 23.501 27.6321C22.621 28.4921 21.401 28.9221 19.841 28.9221H16.571C15.011 28.9221 13.791 28.4921 12.911 27.6321C12.031 26.7721 11.591 25.5621 11.591 24.0021Z"/>
</mask>
<path d="M15.851 25.2021L15.1687 25.9332H15.1687L15.851 25.2021ZM20.531 25.1721L19.847 24.4426L19.8353 24.4536L19.8239 24.465L20.531 25.1721ZM20.291 21.8121L19.7199 22.633L19.7401 22.6471L19.761 22.6601L20.291 21.8121ZM18.551 21.2421L18.6364 20.2458L18.551 21.2421ZM16.271 20.9121L16.0515 21.8877L16.0654 21.8909L16.0795 21.8936L16.271 20.9121ZM14.021 20.2521L13.6496 21.1806L13.6611 21.1852L13.6728 21.1895L14.021 20.2521ZM12.251 18.6621L11.3841 19.1606L11.3915 19.1735L11.3993 19.1862L12.251 18.6621ZM12.881 10.9221L13.5799 11.6373L13.5799 11.6373L12.881 10.9221ZM23.231 10.9221L22.532 11.6373L22.532 11.6373L23.231 10.9221ZM20.291 13.3521L20.9733 12.6211L20.9733 12.6211L20.291 13.3521ZM15.791 13.4121L15.0614 12.7282L15.0599 12.7298L15.791 13.4121ZM17.831 17.4021L17.7459 18.3985L17.7489 18.3987L17.831 17.4021ZM22.361 18.4221L22.7549 17.503L22.7473 17.4997L22.7396 17.4966L22.361 18.4221ZM24.101 20.0421L23.2396 20.5501L23.2473 20.5632L23.2555 20.5761L24.101 20.0421ZM12.911 27.6321L12.212 28.3473L12.911 27.6321ZM12.591 24.0021V23.4021H10.591V24.0021H12.591ZM12.591 23.4021C12.591 23.3463 12.6043 23.488 12.4556 23.6367C12.3069 23.7854 12.1651 23.7721 12.221 23.7721V21.7721C11.8568 21.7721 11.4 21.8638 11.0414 22.2225C10.6827 22.5812 10.591 23.038 10.591 23.4021H12.591ZM12.221 23.7721H14.771V21.7721H12.221V23.7721ZM14.771 23.7721C14.8268 23.7721 14.685 23.7854 14.5364 23.6367C14.3877 23.488 14.401 23.3463 14.401 23.4021H16.401C16.401 23.038 16.3093 22.5812 15.9506 22.2225C15.5919 21.8638 15.1351 21.7721 14.771 21.7721V23.7721ZM14.401 23.4021V23.6421H16.401V23.4021H14.401ZM14.401 23.6421C14.401 24.4643 14.5495 25.3553 15.1687 25.9332L16.5333 24.4711C16.5512 24.4878 16.5147 24.4652 16.4743 24.325C16.4334 24.1832 16.401 23.963 16.401 23.6421H14.401ZM15.1687 25.9332C15.7646 26.4894 16.657 26.6221 17.501 26.6221V24.6221C17.1531 24.6221 16.9042 24.591 16.7352 24.548C16.5638 24.5044 16.5223 24.4608 16.5333 24.4711L15.1687 25.9332ZM17.501 26.6221H18.911V24.6221H17.501V26.6221ZM18.911 26.6221C19.7551 26.6221 20.6448 26.4725 21.2381 25.8792L19.8239 24.465C19.8288 24.4601 19.7888 24.5029 19.6333 24.5461C19.4771 24.5895 19.243 24.6221 18.911 24.6221V26.6221ZM21.2149 25.9017C21.8537 25.3028 22.011 24.3709 22.011 23.4921H20.011C20.011 23.8438 19.9759 24.0898 19.9294 24.2524C19.8833 24.4138 19.8386 24.4505 19.847 24.4426L21.2149 25.9017ZM22.011 23.4921V23.1321H20.011V23.4921H22.011ZM22.011 23.1321C22.011 22.2177 21.602 21.4523 20.821 20.9641L19.761 22.6601C19.9399 22.772 20.011 22.8866 20.011 23.1321H22.011ZM20.862 20.9912C20.2261 20.5489 19.4671 20.317 18.6364 20.2458L18.4656 22.2385C19.0348 22.2873 19.4358 22.4354 19.7199 22.633L20.862 20.9912ZM18.6364 20.2458C17.9779 20.1893 17.2537 20.085 16.4625 19.9306L16.0795 21.8936C16.9282 22.0592 17.7241 22.1749 18.4656 22.2385L18.6364 20.2458ZM16.4905 19.9365C15.73 19.7654 15.0233 19.5577 14.3692 19.3147L13.6728 21.1895C14.4186 21.4666 15.212 21.6988 16.0515 21.8877L16.4905 19.9365ZM14.3924 19.3236C13.9315 19.1393 13.4948 18.7754 13.1026 18.138L11.3993 19.1862C11.9671 20.1089 12.7105 20.805 13.6496 21.1806L14.3924 19.3236ZM13.1179 18.1636C12.77 17.5587 12.561 16.7251 12.561 15.6021H10.561C10.561 16.9591 10.8119 18.1656 11.3841 19.1606L13.1179 18.1636ZM12.561 15.6021V14.5521H10.561V15.6021H12.561ZM12.561 14.5521C12.561 13.1852 12.9408 12.2619 13.5799 11.6373L12.182 10.2069C11.0612 11.3023 10.561 12.799 10.561 14.5521H12.561ZM13.5799 11.6373C14.2265 11.0054 15.1689 10.6321 16.541 10.6321V8.63212C14.793 8.63212 13.2954 9.11883 12.182 10.2069L13.5799 11.6373ZM16.541 10.6321H19.541V8.63212H16.541V10.6321ZM19.541 10.6321C20.9371 10.6321 21.8878 11.0077 22.532 11.6373L23.9299 10.2069C22.8142 9.11657 21.3048 8.63212 19.541 8.63212V10.6321ZM22.532 11.6373C23.1712 12.2619 23.551 13.1852 23.551 14.5521H25.551C25.551 12.799 25.0508 11.3023 23.9299 10.2069L22.532 11.6373ZM23.551 14.5521V15.1221H25.551V14.5521H23.551ZM23.551 15.1221C23.551 15.178 23.5377 15.0362 23.6864 14.8875C23.835 14.7388 23.9768 14.7521 23.921 14.7521V16.7521C24.2851 16.7521 24.7419 16.6604 25.1006 16.3017C25.4593 15.943 25.551 15.4863 25.551 15.1221H23.551ZM23.921 14.7521H21.371V16.7521H23.921V14.7521ZM21.371 14.7521C21.3151 14.7521 21.4569 14.7388 21.6056 14.8875C21.7543 15.0362 21.741 15.178 21.741 15.1221H19.741C19.741 15.4863 19.8327 15.943 20.1914 16.3017C20.55 16.6604 21.0068 16.7521 21.371 16.7521V14.7521ZM21.741 15.1221V14.9421H19.741V15.1221H21.741ZM21.741 14.9421C21.741 14.1094 21.5961 13.2023 20.9733 12.6211L19.6087 14.0832C19.587 14.063 19.6245 14.0843 19.6663 14.2319C19.7082 14.3801 19.741 14.6093 19.741 14.9421H21.741ZM20.9733 12.6211C20.3774 12.0649 19.4849 11.9321 18.641 11.9321V13.9321C18.9888 13.9321 19.2378 13.9632 19.4068 14.0062C19.5782 14.0498 19.6196 14.0934 19.6087 14.0832L20.9733 12.6211ZM18.641 11.9321H17.471V13.9321H18.641V11.9321ZM17.471 11.9321C16.5922 11.9321 15.6603 12.0894 15.0614 12.7282L16.5205 14.0961C16.5126 14.1045 16.5492 14.0598 16.7107 14.0136C16.8732 13.9672 17.1192 13.9321 17.471 13.9321V11.9321ZM15.0599 12.7298C14.7553 13.0562 14.5934 13.4686 14.5021 13.8599C14.4088 14.2599 14.371 14.7173 14.371 15.2121H16.371C16.371 14.807 16.4032 14.5143 16.4498 14.3143C16.4985 14.1057 16.5466 14.0681 16.522 14.0944L15.0599 12.7298ZM14.371 15.2121V15.7821H16.371V15.2121H14.371ZM14.371 15.7821C14.371 16.606 14.7601 17.2822 15.436 17.7273C16.0494 18.1312 16.8588 18.3228 17.7459 18.3985L17.916 16.4057C17.1632 16.3415 16.7426 16.193 16.536 16.0569C16.3919 15.9621 16.371 15.8982 16.371 15.7821H14.371ZM17.7489 18.3987C19.3663 18.5319 20.7734 18.8531 21.9823 19.3477L22.7396 17.4966C21.3085 16.9111 19.6956 16.5523 17.913 16.4055L17.7489 18.3987ZM21.9671 19.3413C22.4366 19.5425 22.8667 19.9178 23.2396 20.5501L24.9623 19.5341C24.4153 18.6065 23.6854 17.9018 22.7549 17.503L21.9671 19.3413ZM23.2555 20.5761C23.606 21.1311 23.821 21.9094 23.821 22.9821H25.821C25.821 21.6548 25.5559 20.4731 24.9465 19.5081L23.2555 20.5761ZM23.821 22.9821V24.0021H25.821V22.9821H23.821ZM23.821 24.0021C23.821 25.369 23.4412 26.2923 22.802 26.9169L24.1999 28.3473C25.3208 27.2519 25.821 25.7552 25.821 24.0021H23.821ZM22.802 26.9169C22.1554 27.5488 21.213 27.9221 19.841 27.9221V29.9221C21.5889 29.9221 23.0865 29.4354 24.1999 28.3473L22.802 26.9169ZM19.841 27.9221H16.571V29.9221H19.841V27.9221ZM16.571 27.9221C15.1989 27.9221 14.2565 27.5488 13.6099 26.9169L12.212 28.3473C13.3254 29.4354 14.823 29.9221 16.571 29.9221V27.9221ZM13.6099 26.9169C12.9708 26.2923 12.591 25.369 12.591 24.0021H10.591C10.591 25.7552 11.0912 27.2519 12.212 28.3473L13.6099 26.9169Z" fill="white" fill-opacity="0.94" mask="url(#path-3-outside-1_116_1614)"/>
<mask id="path-5-outside-2_116_1614" maskUnits="userSpaceOnUse" x="21.5071" y="23.0667" width="16" height="22" fill="black">
<rect fill="white" x="21.5071" y="23.0667" width="16" height="22"/>
<path d="M31.3771 44.0667H28.1071C26.5271 44.0667 25.3071 43.6467 24.4471 42.8067C23.5871 41.9667 23.1571 40.7567 23.1571 39.1767V29.6666C23.1571 28.0866 23.5871 26.8766 24.4471 26.0367C25.3071 25.1967 26.5271 24.7767 28.1071 24.7767H31.3771C32.9371 24.7767 34.1471 25.2067 35.0071 26.0666C35.8871 26.9066 36.3271 28.1066 36.3271 29.6666V31.0766C36.3271 31.5166 36.1071 31.7366 35.6671 31.7366H33.1471C32.7271 31.7366 32.5171 31.5166 32.5171 31.0766V29.8466C32.5171 29.2066 32.3771 28.7566 32.0971 28.4966C31.8371 28.2166 31.3871 28.0766 30.7471 28.0766H28.7071C28.0871 28.0766 27.6371 28.2166 27.3571 28.4966C27.0971 28.7566 26.9671 29.2066 26.9671 29.8466V38.9966C26.9671 39.6367 27.0971 40.0967 27.3571 40.3767C27.6371 40.6367 28.0871 40.7667 28.7071 40.7667H30.7471C31.3871 40.7667 31.8371 40.6367 32.0971 40.3767C32.3771 40.0967 32.5171 39.6367 32.5171 38.9966V37.7667C32.5171 37.3267 32.7271 37.1067 33.1471 37.1067H35.6671C36.1071 37.1067 36.3271 37.3267 36.3271 37.7667V39.1767C36.3271 40.7367 35.8871 41.9467 35.0071 42.8067C34.1471 43.6467 32.9371 44.0667 31.3771 44.0667Z"/>
</mask>
<path d="M24.4471 42.8067L25.1458 42.0913H25.1458L24.4471 42.8067ZM24.4471 26.0367L25.1458 26.752V26.752L24.4471 26.0367ZM35.0071 26.0666L34.3 26.7738L34.3082 26.782L34.3166 26.79L35.0071 26.0666ZM32.0971 28.4966L31.3643 29.1771L31.3895 29.2042L31.4166 29.2294L32.0971 28.4966ZM27.3571 28.4966L26.65 27.7895L26.65 27.7895L27.3571 28.4966ZM27.3571 40.3766L26.6243 41.0571L26.6495 41.0842L26.6766 41.1094L27.3571 40.3766ZM32.0971 40.3766L32.8042 41.0838H32.8042L32.0971 40.3766ZM35.0071 42.8067L35.7058 43.522L35.706 43.5218L35.0071 42.8067ZM31.3771 43.0667H28.1071V45.0667H31.3771V43.0667ZM28.1071 43.0667C26.7033 43.0667 25.766 42.697 25.1458 42.0913L23.7483 43.522C24.8482 44.5963 26.3509 45.0667 28.1071 45.0667V43.0667ZM25.1458 42.0913C24.5336 41.4932 24.1571 40.5756 24.1571 39.1767H22.1571C22.1571 40.9377 22.6406 42.4401 23.7483 43.522L25.1458 42.0913ZM24.1571 39.1767V29.6666H22.1571V39.1767H24.1571ZM24.1571 29.6666C24.1571 28.2677 24.5336 27.3501 25.1458 26.752L23.7483 25.3213C22.6406 26.4032 22.1571 27.9056 22.1571 29.6666H24.1571ZM25.1458 26.752C25.766 26.1463 26.7033 25.7767 28.1071 25.7767V23.7767C26.3509 23.7767 24.8482 24.247 23.7483 25.3213L25.1458 26.752ZM28.1071 25.7767H31.3771V23.7767H28.1071V25.7767ZM31.3771 25.7767C32.7504 25.7767 33.6765 26.1503 34.3 26.7738L35.7142 25.3595C34.6176 24.263 33.1238 23.7767 31.3771 23.7767V25.7767ZM34.3166 26.79C34.9469 27.3917 35.3271 28.2985 35.3271 29.6666H37.3271C37.3271 27.9148 36.8273 26.4216 35.6976 25.3433L34.3166 26.79ZM35.3271 29.6666V31.0766H37.3271V29.6666H35.3271ZM35.3271 31.0766C35.3271 31.1425 35.3113 31.0082 35.455 30.8645C35.5987 30.7209 35.7329 30.7366 35.6671 30.7366V32.7366C36.0412 32.7366 36.5055 32.6424 36.8692 32.2788C37.2329 31.9151 37.3271 31.4508 37.3271 31.0766H35.3271ZM35.6671 30.7366H33.1471V32.7366H35.6671V30.7366ZM33.1471 30.7366C33.1034 30.7366 33.2513 30.7276 33.3979 30.8812C33.5363 31.0261 33.5171 31.1538 33.5171 31.0766H31.5171C31.5171 31.4395 31.6029 31.8972 31.9512 32.2621C32.3079 32.6357 32.7708 32.7366 33.1471 32.7366V30.7366ZM33.5171 31.0766V29.8466H31.5171V31.0766H33.5171ZM33.5171 29.8466C33.5171 29.1077 33.3632 28.3077 32.7775 27.7639L31.4166 29.2294C31.402 29.2159 31.4271 29.2293 31.4572 29.3262C31.4888 29.4276 31.5171 29.5939 31.5171 29.8466H33.5171ZM32.8299 27.8162C32.286 27.2305 31.486 27.0766 30.7471 27.0766V29.0766C30.9998 29.0766 31.1661 29.105 31.2675 29.1365C31.3644 29.1666 31.3779 29.1917 31.3643 29.1771L32.8299 27.8162ZM30.7471 27.0766H28.7071V29.0766H30.7471V27.0766ZM28.7071 27.0766C27.9676 27.0766 27.2001 27.2394 26.65 27.7895L28.0642 29.2038C28.074 29.1939 28.2066 29.0766 28.7071 29.0766V27.0766ZM26.65 27.7895C26.1042 28.3353 25.9671 29.1236 25.9671 29.8466H27.9671C27.9671 29.5888 27.9939 29.4153 28.0253 29.3067C28.056 29.2005 28.082 29.1859 28.0642 29.2038L26.65 27.7895ZM25.9671 29.8466V38.9966H27.9671V29.8466H25.9671ZM25.9671 38.9966C25.9671 39.73 26.1085 40.5017 26.6243 41.0571L28.0899 39.6962C28.0856 39.6916 27.9671 39.5433 27.9671 38.9966H25.9671ZM26.6766 41.1094C27.2275 41.621 27.9834 41.7666 28.7071 41.7666V39.7667C28.1908 39.7667 28.0467 39.6523 28.0375 39.6439L26.6766 41.1094ZM28.7071 41.7666H30.7471V39.7667H28.7071V41.7666ZM30.7471 41.7666C31.4701 41.7666 32.2584 41.6295 32.8042 41.0838L31.39 39.6695C31.4078 39.6517 31.3932 39.6778 31.287 39.7084C31.1784 39.7398 31.005 39.7667 30.7471 39.7667V41.7666ZM32.8042 41.0838C33.3592 40.5288 33.5171 39.7453 33.5171 38.9966H31.5171C31.5171 39.528 31.395 39.6645 31.39 39.6695L32.8042 41.0838ZM33.5171 38.9966V37.7667H31.5171V38.9966H33.5171ZM33.5171 37.7667C33.5171 37.6895 33.5363 37.8172 33.3979 37.9621C33.2513 38.1157 33.1034 38.1067 33.1471 38.1067V36.1067C32.7708 36.1067 32.3079 36.2076 31.9512 36.5812C31.6029 36.9461 31.5171 37.4038 31.5171 37.7667H33.5171ZM33.1471 38.1067H35.6671V36.1067H33.1471V38.1067ZM35.6671 38.1067C35.7329 38.1067 35.5987 38.1224 35.455 37.9788C35.3113 37.8351 35.3271 37.7008 35.3271 37.7667H37.3271C37.3271 37.3925 37.2329 36.9282 36.8692 36.5645C36.5055 36.2009 36.0412 36.1067 35.6671 36.1067V38.1067ZM35.3271 37.7667V39.1767H37.3271V37.7667H35.3271ZM35.3271 39.1767C35.3271 40.5435 34.9473 41.4669 34.3081 42.0915L35.706 43.5218C36.8269 42.4264 37.3271 40.9298 37.3271 39.1767H35.3271ZM34.3083 42.0913C33.6859 42.6992 32.7567 43.0667 31.3771 43.0667V45.0667C33.1174 45.0667 34.6082 44.5941 35.7058 43.522L34.3083 42.0913Z" fill="white" fill-opacity="0.94" mask="url(#path-5-outside-2_116_1614)"/>
<path d="M72.504 32.24C71.176 32.24 70.048 32 69.12 31.52C68.192 31.04 67.36 30.336 66.624 29.408L68.496 27.536C68.96 28.208 69.512 28.736 70.152 29.12C70.792 29.488 71.608 29.672 72.6 29.672C73.528 29.672 74.264 29.48 74.808 29.096C75.368 28.712 75.648 28.184 75.648 27.512C75.648 26.952 75.504 26.496 75.216 26.144C74.928 25.792 74.544 25.504 74.064 25.28C73.6 25.04 73.08 24.832 72.504 24.656C71.944 24.464 71.376 24.256 70.8 24.032C70.24 23.792 69.72 23.496 69.24 23.144C68.776 22.792 68.4 22.336 68.112 21.776C67.824 21.216 67.68 20.504 67.68 19.64C67.68 18.648 67.92 17.808 68.4 17.12C68.896 16.416 69.56 15.88 70.392 15.512C71.224 15.144 72.152 14.96 73.176 14.96C74.28 14.96 75.264 15.176 76.128 15.608C77.008 16.04 77.72 16.592 78.264 17.264L76.392 19.136C75.912 18.592 75.408 18.192 74.88 17.936C74.368 17.664 73.776 17.528 73.104 17.528C72.272 17.528 71.616 17.696 71.136 18.032C70.672 18.368 70.44 18.84 70.44 19.448C70.44 19.96 70.584 20.376 70.872 20.696C71.16 21 71.536 21.264 72 21.488C72.48 21.696 73 21.896 73.56 22.088C74.136 22.28 74.704 22.496 75.264 22.736C75.84 22.976 76.36 23.288 76.824 23.672C77.304 24.04 77.688 24.52 77.976 25.112C78.264 25.704 78.408 26.448 78.408 27.344C78.408 28.848 77.872 30.04 76.8 30.92C75.744 31.8 74.312 32.24 72.504 32.24ZM82.5519 32V15.68H85.1919V32H82.5519ZM79.7919 22.88V20.48H87.9519V22.88H79.7919ZM94.5983 32.24C93.6223 32.24 92.7503 32.024 91.9823 31.592C91.2303 31.16 90.6383 30.568 90.2063 29.816C89.7903 29.048 89.5823 28.168 89.5823 27.176V20.48H92.2223V27.056C92.2223 27.616 92.3103 28.096 92.4863 28.496C92.6783 28.88 92.9503 29.176 93.3023 29.384C93.6703 29.592 94.1023 29.696 94.5983 29.696C95.3663 29.696 95.9503 29.472 96.3503 29.024C96.7663 28.56 96.9743 27.904 96.9743 27.056V20.48H99.6143V27.176C99.6143 28.184 99.3983 29.072 98.9663 29.84C98.5503 30.592 97.9663 31.184 97.2143 31.616C96.4623 32.032 95.5903 32.24 94.5983 32.24ZM107.093 32.24C106.053 32.24 105.109 31.976 104.261 31.448C103.429 30.92 102.765 30.208 102.269 29.312C101.789 28.4 101.549 27.384 101.549 26.264C101.549 25.128 101.789 24.112 102.269 23.216C102.765 22.304 103.429 21.584 104.261 21.056C105.109 20.512 106.053 20.24 107.093 20.24C107.973 20.24 108.749 20.432 109.421 20.816C110.109 21.184 110.653 21.696 111.053 22.352C111.453 23.008 111.653 23.752 111.653 24.584V27.896C111.653 28.728 111.453 29.472 111.053 30.128C110.669 30.784 110.133 31.304 109.445 31.688C108.757 32.056 107.973 32.24 107.093 32.24ZM107.525 29.744C108.181 29.744 108.749 29.6 109.229 29.312C109.725 29.008 110.109 28.592 110.381 28.064C110.653 27.536 110.789 26.928 110.789 26.24C110.789 25.552 110.653 24.944 110.381 24.416C110.109 23.888 109.725 23.48 109.229 23.192C108.749 22.888 108.181 22.736 107.525 22.736C106.885 22.736 106.317 22.888 105.821 23.192C105.341 23.48 104.957 23.888 104.669 24.416C104.397 24.944 104.261 25.552 104.261 26.24C104.261 26.928 104.397 27.536 104.669 28.064C104.957 28.592 105.341 29.008 105.821 29.312C106.317 29.6 106.885 29.744 107.525 29.744ZM113.261 32H110.621V28.904L111.077 26.096L110.621 23.312V14.72H113.261V32ZM121.543 32.24C120.391 32.24 119.351 31.984 118.423 31.472C117.511 30.944 116.783 30.224 116.239 29.312C115.711 28.4 115.447 27.376 115.447 26.24C115.447 25.104 115.711 24.088 116.239 23.192C116.767 22.28 117.479 21.56 118.375 21.032C119.287 20.504 120.295 20.24 121.399 20.24C122.471 20.24 123.415 20.488 124.231 20.984C125.063 21.48 125.711 22.16 126.175 23.024C126.655 23.888 126.895 24.872 126.895 25.976C126.895 26.168 126.879 26.368 126.847 26.576C126.831 26.768 126.799 26.984 126.751 27.224H117.295V25.064H125.383L124.399 25.928C124.367 25.224 124.231 24.632 123.991 24.152C123.751 23.672 123.407 23.304 122.959 23.048C122.527 22.792 121.991 22.664 121.351 22.664C120.679 22.664 120.095 22.808 119.599 23.096C119.103 23.384 118.719 23.792 118.447 24.32C118.175 24.832 118.039 25.448 118.039 26.168C118.039 26.888 118.183 27.52 118.471 28.064C118.759 28.608 119.167 29.032 119.695 29.336C120.223 29.624 120.831 29.768 121.519 29.768C122.111 29.768 122.655 29.664 123.151 29.456C123.663 29.248 124.095 28.944 124.447 28.544L126.127 30.248C125.567 30.904 124.887 31.4 124.087 31.736C123.287 32.072 122.439 32.24 121.543 32.24ZM136.907 32V25.352C136.907 24.584 136.659 23.952 136.163 23.456C135.683 22.96 135.059 22.712 134.291 22.712C133.779 22.712 133.323 22.824 132.923 23.048C132.523 23.272 132.211 23.584 131.987 23.984C131.763 24.384 131.651 24.84 131.651 25.352L130.619 24.776C130.619 23.896 130.811 23.12 131.195 22.448C131.579 21.76 132.107 21.224 132.779 20.84C133.467 20.44 134.235 20.24 135.083 20.24C135.947 20.24 136.715 20.464 137.387 20.912C138.059 21.344 138.587 21.912 138.971 22.616C139.355 23.304 139.547 24.024 139.547 24.776V32H136.907ZM129.011 32V20.48H131.651V32H129.011ZM143.841 32V15.68H146.481V32H143.841ZM141.081 22.88V20.48H149.241V22.88H141.081ZM159.151 32.24C157.935 32.24 156.807 32.024 155.767 31.592C154.743 31.144 153.847 30.528 153.079 29.744C152.311 28.944 151.719 28.024 151.303 26.984C150.887 25.928 150.679 24.8 150.679 23.6C150.679 22.4 150.887 21.28 151.303 20.24C151.719 19.184 152.311 18.264 153.079 17.48C153.847 16.696 154.743 16.08 155.767 15.632C156.807 15.184 157.935 14.96 159.151 14.96C160.511 14.96 161.687 15.184 162.679 15.632C163.671 16.08 164.551 16.688 165.319 17.456L163.447 19.328C162.951 18.784 162.343 18.36 161.623 18.056C160.919 17.752 160.095 17.6 159.151 17.6C158.319 17.6 157.559 17.744 156.871 18.032C156.183 18.32 155.583 18.736 155.071 19.28C154.575 19.808 154.191 20.44 153.919 21.176C153.647 21.912 153.511 22.72 153.511 23.6C153.511 24.48 153.647 25.288 153.919 26.024C154.191 26.76 154.575 27.4 155.071 27.944C155.583 28.472 156.183 28.88 156.871 29.168C157.559 29.456 158.319 29.6 159.151 29.6C160.175 29.6 161.039 29.448 161.743 29.144C162.463 28.824 163.071 28.392 163.567 27.848L165.439 29.72C164.671 30.504 163.767 31.12 162.727 31.568C161.687 32.016 160.495 32.24 159.151 32.24ZM175.438 32V25.352C175.438 24.584 175.19 23.952 174.694 23.456C174.214 22.96 173.59 22.712 172.822 22.712C172.31 22.712 171.854 22.824 171.454 23.048C171.054 23.272 170.742 23.584 170.518 23.984C170.294 24.384 170.182 24.84 170.182 25.352L169.15 24.776C169.15 23.896 169.342 23.12 169.726 22.448C170.11 21.76 170.638 21.224 171.31 20.84C171.998 20.44 172.766 20.24 173.614 20.24C174.478 20.24 175.246 20.432 175.918 20.816C176.59 21.2 177.118 21.736 177.502 22.424C177.886 23.096 178.078 23.88 178.078 24.776V32H175.438ZM167.542 32V14.72H170.182V32H167.542ZM186.113 32.24C184.961 32.24 183.921 31.984 182.993 31.472C182.081 30.944 181.353 30.224 180.809 29.312C180.281 28.4 180.017 27.376 180.017 26.24C180.017 25.104 180.281 24.088 180.809 23.192C181.337 22.28 182.049 21.56 182.945 21.032C183.857 20.504 184.865 20.24 185.969 20.24C187.041 20.24 187.985 20.488 188.801 20.984C189.633 21.48 190.281 22.16 190.745 23.024C191.225 23.888 191.465 24.872 191.465 25.976C191.465 26.168 191.449 26.368 191.417 26.576C191.401 26.768 191.369 26.984 191.321 27.224H181.865V25.064H189.953L188.969 25.928C188.937 25.224 188.801 24.632 188.561 24.152C188.321 23.672 187.977 23.304 187.529 23.048C187.097 22.792 186.561 22.664 185.921 22.664C185.249 22.664 184.665 22.808 184.169 23.096C183.673 23.384 183.289 23.792 183.017 24.32C182.745 24.832 182.609 25.448 182.609 26.168C182.609 26.888 182.753 27.52 183.041 28.064C183.329 28.608 183.737 29.032 184.265 29.336C184.793 29.624 185.401 29.768 186.089 29.768C186.681 29.768 187.225 29.664 187.721 29.456C188.233 29.248 188.665 28.944 189.017 28.544L190.697 30.248C190.137 30.904 189.457 31.4 188.657 31.736C187.857 32.072 187.009 32.24 186.113 32.24ZM198.885 32.24C197.749 32.24 196.717 31.976 195.789 31.448C194.877 30.92 194.157 30.2 193.629 29.288C193.101 28.376 192.837 27.36 192.837 26.24C192.837 25.104 193.101 24.088 193.629 23.192C194.157 22.28 194.877 21.56 195.789 21.032C196.717 20.504 197.749 20.24 198.885 20.24C199.781 20.24 200.613 20.416 201.381 20.768C202.165 21.104 202.829 21.592 203.373 22.232L201.645 23.984C201.309 23.584 200.901 23.288 200.421 23.096C199.957 22.888 199.445 22.784 198.885 22.784C198.229 22.784 197.645 22.936 197.133 23.24C196.637 23.528 196.245 23.928 195.957 24.44C195.685 24.952 195.549 25.552 195.549 26.24C195.549 26.912 195.685 27.512 195.957 28.04C196.245 28.552 196.637 28.96 197.133 29.264C197.645 29.552 198.229 29.696 198.885 29.696C199.445 29.696 199.957 29.6 200.421 29.408C200.901 29.2 201.309 28.896 201.645 28.496L203.373 30.248C202.829 30.888 202.165 31.384 201.381 31.736C200.613 32.072 199.781 32.24 198.885 32.24ZM212.597 32L207.725 26.12L212.573 20.48H215.717L210.148 26.816L210.269 25.304L215.957 32H212.597ZM205.277 32V14.72H207.917V32H205.277Z" fill="black"/>
</svg>
