<svg width="15" height="15" viewBox="0 0 15 15" fill="none" xmlns="http://www.w3.org/2000/svg">
<circle cx="7.5" cy="7.5" r="7" stroke="#55687D"/>
<path d="M6.804 11V5.3H7.884V11H6.804ZM7.344 4.16C7.144 4.16 6.98 4.096 6.852 3.968C6.724 3.832 6.66 3.664 6.66 3.464C6.66 3.272 6.724 3.112 6.852 2.984C6.98 2.848 7.144 2.78 7.344 2.78C7.544 2.78 7.708 2.848 7.836 2.984C7.964 3.112 8.028 3.272 8.028 3.464C8.028 3.664 7.964 3.832 7.836 3.968C7.708 4.096 7.544 4.16 7.344 4.16Z" fill="#55687D"/>
</svg>
