<svg width="132" height="81" viewBox="0 0 132 81" fill="none" xmlns="http://www.w3.org/2000/svg">
<path d="M57.5223 61.59C59.6588 61.56 61.1756 61.4552 63.9644 61.5451C62.676 64.1673 61.2897 67.8384 59.5936 71.7492C59.2185 72.6183 60.4253 73.3075 61.1103 72.6183C65.9378 67.7484 69.2649 64.1823 74.598 58.3684C75.1035 57.814 74.6632 56.9749 73.8804 56.9899C70.8632 57.0199 69.6726 57.1248 66.6554 56.9749C66.5086 56.9749 67.6014 51.4308 68.4168 47.4301C68.5962 46.5311 67.3078 46.0516 66.7696 46.8158C63.9318 50.7116 59.3326 56.9749 56.7721 60.2864C56.3318 60.8258 56.7721 61.605 57.5223 61.59Z" stroke="black" stroke-width="3.08" stroke-miterlimit="10" stroke-linecap="round" stroke-linejoin="round"/>
<path d="M57.9627 42.0214C50.2485 44.8834 44.8338 52.3004 44.8665 59.9423C44.8991 67.5842 50.3952 74.9563 58.1421 77.7433C65.8889 80.5304 75.3645 78.5675 81.0564 72.9934C84.6117 69.5021 86.6993 64.6922 86.3731 59.9123C85.5251 46.8313 71.7928 36.8969 57.9627 42.0214Z" stroke="black" stroke-width="3.08" stroke-miterlimit="10" stroke-linecap="round" stroke-linejoin="round"/>
<path d="M130 59.6572C129.951 50.2322 127.342 40.8522 122.09 32.7758C120.834 30.8579 119.497 29.0149 118.062 27.2617" stroke="black" stroke-width="3.08" stroke-miterlimit="10" stroke-linecap="round" stroke-linejoin="round"/>
<path d="M2.02242 59.822C1.81041 52.36 3.09882 44.8679 6.01815 37.8854C21.577 0.680019 70.1782 -7.86088 103.808 13.5064" stroke="black" stroke-width="3.08" stroke-miterlimit="10" stroke-linecap="round" stroke-linejoin="round"/>
<path d="M69.6889 41.0768C86.1611 31.8167 104.9 21.2529 120.802 12.2925C109.467 26.3775 97.3492 42.1706 85.8675 56.5703" stroke="black" stroke-width="3.08" stroke-miterlimit="10" stroke-linecap="round" stroke-linejoin="round"/>
<path d="M63.8176 6.91357C63.8503 9.67064 63.8829 12.4427 63.8992 15.1997" stroke="black" stroke-width="3.08" stroke-miterlimit="10" stroke-linecap="round" stroke-linejoin="round"/>
<path d="M23.9745 23.5005C26.1273 25.4334 28.2638 27.3664 30.4166 29.2993" stroke="black" stroke-width="3.08" stroke-miterlimit="10" stroke-linecap="round" stroke-linejoin="round"/>
<path d="M8.56238 61.1267C11.5633 61.0967 14.5804 61.0667 17.5813 61.0518" stroke="black" stroke-width="3.08" stroke-miterlimit="10" stroke-linecap="round" stroke-linejoin="round"/>
<path d="M114.115 61.1267C117.116 61.0967 120.133 61.0667 123.134 61.0518" stroke="black" stroke-width="3.08" stroke-miterlimit="10" stroke-linecap="round" stroke-linejoin="round"/>
</svg>
