<svg width="50" height="50" viewBox="0 0 50 50" fill="none" xmlns="http://www.w3.org/2000/svg">
<rect width="50" height="50" rx="7" fill="#5846A3" fill-opacity="0.15"/>
<g clip-path="url(#clip0_393_375)">
<path d="M18.9628 22.7827H15.3852V26.1618H18.9628V22.7827Z" fill="black"/>
<path d="M34.6148 22.7827H31.0373V26.1618H34.6148V22.7827Z" fill="black"/>
<path d="M29.3976 22.7827H25.82V26.1618H29.3976V22.7827Z" fill="black"/>
<path d="M18.9628 28.062H15.3852V31.4411H18.9628V28.062Z" fill="black"/>
<path d="M29.3976 28.062H25.82V31.4411H29.3976V28.062Z" fill="black"/>
<path d="M24.1802 28.062H20.6027V31.4411H24.1802V28.062Z" fill="black"/>
<path d="M34.6148 33.3413H31.0373V36.7204H34.6148V33.3413Z" fill="black"/>
<path d="M29.3976 33.3413H25.82V36.7204H29.3976V33.3413Z" fill="black"/>
<path d="M24.1802 33.3413H20.6027V36.7204H24.1802V33.3413Z" fill="black"/>
<path d="M37.8867 11.6553H34.9774V14.2896C34.9774 15.2726 34.12 16.072 33.0661 16.072H29.2675C28.2137 16.072 27.3563 15.2726 27.3563 14.2896V11.6553H22.6387V14.2648C22.6387 15.2615 21.7718 16.072 20.7062 16.072H16.9499C15.8843 16.072 15.0174 15.2615 15.0174 14.2648V11.6553H12.1082C10.2163 11.6553 8.67719 13.0958 8.67719 14.8663V38.7889C8.67719 40.5593 10.2163 41.9999 12.1082 41.9999H37.8867C39.7814 41.9999 41.3229 40.5594 41.3229 38.7889V14.8663C41.3229 13.0958 39.7814 11.6553 37.8867 11.6553ZM38.8633 38.7265C38.8633 39.2949 38.459 39.6767 37.8571 39.6767H12.143C11.5411 39.6767 11.1367 39.2949 11.1367 38.7265V19.8261H38.8633V38.7265Z" fill="black"/>
<path d="M16.951 14.8071H20.7051C21.023 14.8071 21.2816 14.5645 21.2816 14.2663V9.36086C21.2816 8.61047 20.6298 8 19.8285 8H17.8275C17.0263 8 16.3743 8.61041 16.3743 9.36086V14.2663C16.3743 14.5645 16.6329 14.8071 16.951 14.8071Z" fill="black"/>
<path d="M29.2675 14.8071H33.0661C33.3718 14.8071 33.6205 14.5738 33.6205 14.2874V9.33995C33.6205 8.60118 32.9787 8 32.1895 8H30.1441C29.3551 8 28.7133 8.60118 28.7133 9.33995V14.2874C28.7132 14.5738 28.9619 14.8071 29.2675 14.8071Z" fill="black"/>
</g>
<defs>
<clipPath id="clip0_393_375">
<rect width="36" height="34" fill="white" transform="translate(7 8)"/>
</clipPath>
</defs>
</svg>
