<svg width="10" height="14" viewBox="0 0 10 14" fill="none" xmlns="http://www.w3.org/2000/svg">
<path d="M0.221957 8.24684C-0.0739857 8.57194 -0.0739857 9.09907 0.221957 9.42416L3.92925 13.4929C4.52124 14.1426 5.48046 14.1423 6.07215 13.4924L9.778 9.42117C10.074 9.09608 10.074 8.56894 9.778 8.24384C9.48208 7.91872 9.00225 7.91872 8.70633 8.24384L5.53449 11.7283C5.23857 12.0535 4.75873 12.0534 4.46281 11.7283L1.29364 8.24684C0.997707 7.92173 0.517892 7.92173 0.221957 8.24684Z" fill="#55687D" fill-opacity="0.65"/>
<path d="M9.77804 5.73314C10.074 5.40804 10.074 4.88091 9.77804 4.55582L6.07075 0.487083C5.47876 -0.162596 4.51954 -0.162345 3.92785 0.487583L0.221997 4.55881C-0.0739988 4.8839 -0.0739988 5.41104 0.221997 5.73614C0.517917 6.06126 0.997754 6.06126 1.29367 5.73614L4.46551 2.25164C4.76143 1.92647 5.24127 1.92655 5.53719 2.25164L8.70636 5.73314C9.00229 6.05825 9.48211 6.05825 9.77804 5.73314Z" fill="#55687D" fill-opacity="0.65"/>
</svg>
