<svg width="106" height="94" viewBox="0 0 106 94" fill="none" xmlns="http://www.w3.org/2000/svg">
<g clip-path="url(#clip0_436_1268)">
<path d="M85.8521 40.0735C85.8521 39.2538 85.1031 38.5894 84.1785 38.5894H44.0411C43.1167 38.5894 42.3675 39.254 42.3675 40.0735C42.3675 40.8933 43.1169 41.5577 44.0411 41.5577H84.1785C85.1029 41.5577 85.8521 40.8931 85.8521 40.0735Z" fill="black"/>
<path d="M50.7305 52.4419C49.8061 52.4419 49.0569 53.1065 49.0569 53.9261C49.0569 54.7456 49.8063 55.4102 50.7305 55.4102H50.9537C51.8781 55.4102 52.6273 54.7456 52.6273 53.9261C52.6273 53.1065 51.8779 52.4419 50.9537 52.4419H50.7305Z" fill="black"/>
<path d="M94.7715 24.7453V9.4C94.7715 4.21696 90.0162 0 84.1715 0H21.7493C15.9046 0 11.1493 4.21696 11.1493 9.4V48.4959C4.95157 48.7553 0 53.311 0 58.8737C0 64.6026 5.25218 69.2631 11.708 69.2631H42.288V74.4043C42.288 75.0669 42.6387 75.6926 43.2507 76.1213C43.2509 76.1215 43.2511 76.1215 43.2511 76.1215C44.2916 76.8503 45.8614 76.8503 46.9025 76.1215L55.5744 70.048C56.3939 69.4741 56.8638 68.647 56.8638 67.779C56.8638 66.9109 56.3941 66.0838 55.5744 65.5099L46.9025 59.4365C45.8614 58.7072 44.2919 58.7074 43.2511 59.4363C42.6389 59.865 42.288 60.4907 42.288 61.1534V66.2948H14.4965V9.4C14.4965 5.8537 17.7502 2.96834 21.7493 2.96834H84.1717C88.1709 2.96834 91.4244 5.8537 91.4244 9.4V24.7369H63.5538V19.5957C63.5538 18.9329 63.2029 18.3072 62.5907 17.8785C61.55 17.1495 59.9805 17.1499 58.9397 17.8785L50.2678 23.952C49.4482 24.5259 48.9782 25.353 48.9782 26.221C48.9782 27.0891 49.4482 27.9162 50.2676 28.4901L58.9397 34.5635C59.9807 35.2926 61.5502 35.2924 62.5903 34.5639C63.2027 34.1354 63.5538 33.5095 63.5538 32.8466V27.7052H93.0792C93.0914 27.7054 93.104 27.7054 93.1162 27.7052H94.292C98.9019 27.7052 102.653 31.0341 102.653 35.1263C102.653 39.0754 99.1593 42.314 94.7712 42.5352V32.8504C94.7712 32.0307 94.0222 31.3663 93.0976 31.3663C92.173 31.3663 91.424 32.0309 91.424 32.8504V84.6C91.424 88.1463 88.1705 91.0317 84.1712 91.0317H21.7493C17.7502 91.0317 14.4965 88.1463 14.4965 84.6V74.6063C14.4965 73.7865 13.7471 73.1221 12.8229 73.1221C11.8985 73.1221 11.1493 73.7867 11.1493 74.6063V84.6C11.1493 89.783 15.9046 94 21.7493 94H84.1717C90.0164 94 94.7717 89.783 94.7717 84.6V45.5072C101.006 45.283 106 40.7125 106 35.1263C106 29.5402 101.006 24.9695 94.7715 24.7453ZM11.1493 66.2783C6.79849 66.0223 3.34749 62.7992 3.34749 58.8736C3.34749 54.9481 6.7987 51.7248 11.1493 51.4689V66.2783ZM45.6353 62.3317L53.4132 67.779L45.6353 73.2264V62.3317ZM60.2061 31.6683L52.4282 26.221L60.2061 20.7736V31.6683Z" fill="black"/>
<path d="M84.1785 66.2949H64.1097C63.1851 66.2949 62.4361 66.9595 62.4361 67.7791C62.4361 68.5988 63.1851 69.2633 64.1097 69.2633H84.1785C85.1031 69.2633 85.8521 68.5987 85.8521 67.7791C85.8521 66.9593 85.1029 66.2949 84.1785 66.2949Z" fill="black"/>
<path d="M21.7424 55.4107H44.0409C44.9653 55.4107 45.7146 54.7461 45.7146 53.9266C45.7146 53.107 44.9651 52.4424 44.0409 52.4424H21.7424C20.818 52.4424 20.0688 53.107 20.0688 53.9266C20.0688 54.7461 20.8182 55.4107 21.7424 55.4107Z" fill="black"/>
<path d="M84.1785 52.4419H64.1097C63.1851 52.4419 62.4361 53.1065 62.4361 53.9261C62.4361 54.7456 63.1851 55.4102 64.1097 55.4102H84.1785C85.1031 55.4102 85.8521 54.7456 85.8521 53.9261C85.8521 53.1065 85.1029 52.4419 84.1785 52.4419Z" fill="black"/>
<path d="M43.4848 26.221C43.4848 25.4012 42.7354 24.7368 41.8112 24.7368H21.7424C20.818 24.7368 20.0688 25.4014 20.0688 26.221C20.0688 27.0407 20.8182 27.7052 21.7424 27.7052H41.811C42.7354 27.7052 43.4848 27.0407 43.4848 26.221Z" fill="black"/>
<path d="M57.1971 55.4107H57.4201C58.3447 55.4107 59.0938 54.7461 59.0938 53.9266C59.0938 53.107 58.3447 52.4424 57.4201 52.4424H57.1971C56.2725 52.4424 55.5235 53.107 55.5235 53.9266C55.5235 54.7461 56.2725 55.4107 57.1971 55.4107Z" fill="black"/>
<path d="M37.1284 38.5894C36.204 38.5894 35.4547 39.254 35.4547 40.0735C35.4547 40.8933 36.2042 41.5577 37.1284 41.5577H37.3513C38.2757 41.5577 39.025 40.8931 39.025 40.0735C39.025 39.2538 38.2755 38.5894 37.3513 38.5894H37.1284Z" fill="black"/>
<path d="M21.7424 41.5577H30.6617C31.5861 41.5577 32.3354 40.8931 32.3354 40.0735C32.3354 39.2538 31.5859 38.5894 30.6617 38.5894H21.7424C20.818 38.5894 20.0688 39.254 20.0688 40.0735C20.0688 40.8931 20.8182 41.5577 21.7424 41.5577Z" fill="black"/>
</g>
<defs>
<clipPath id="clip0_436_1268">
<rect width="106" height="94" fill="white"/>
</clipPath>
</defs>
</svg>
