<svg width="31" height="31" viewBox="0 0 31 31" fill="none" xmlns="http://www.w3.org/2000/svg">
<path d="M12.2117 2.89771L12.2117 2.8977C13.8896 0.548434 17.3812 0.548408 19.0594 2.89771L19.0594 2.89773L19.3582 3.3161C19.3583 3.31612 19.3583 3.31615 19.3583 3.31618C19.7939 3.92621 20.5256 4.25277 21.2705 4.17001L21.2153 3.67307L21.2705 4.17001L22.6027 4.02197C25.2827 3.72421 27.547 5.98861 27.2493 8.66847L27.1013 10.0008C27.0185 10.7457 27.345 11.4773 27.9551 11.913L27.9551 11.913L28.3736 12.2119C28.3736 12.2119 28.3736 12.2119 28.3736 12.2119C30.7228 13.8899 30.7228 17.3815 28.3736 19.0596L27.9551 19.3585C27.9551 19.3585 27.9551 19.3585 27.9551 19.3585C27.345 19.7942 27.0186 20.5259 27.1013 21.2707L27.2493 22.6029L27.2493 22.603C27.547 25.2829 25.2827 27.5473 22.6027 27.2495L22.6027 27.2495L21.2704 27.1016C20.5256 27.0188 19.794 27.3452 19.3583 27.9553C19.3583 27.9553 19.3583 27.9554 19.3582 27.9554L19.0594 28.3738C17.3812 30.723 13.8898 30.7231 12.2117 28.3738L11.9128 27.9553L11.9128 27.9553C11.477 27.3453 10.7455 27.0188 10.0005 27.1016L8.66824 27.2495C5.98837 27.5473 3.72397 25.2829 4.02173 22.603L4.16977 21.2707L3.67282 21.2155L4.16977 21.2707C4.25253 20.5258 3.92597 19.7942 3.31594 19.3586C3.31591 19.3585 3.31588 19.3585 3.31585 19.3585L2.89748 19.0596L2.89747 19.0596C0.548176 17.3815 0.548173 13.89 2.89747 12.2119L3.31592 11.913C3.92592 11.4773 4.25253 10.7458 4.16977 10.0007L4.16977 10.0007L4.02173 8.66846C3.72397 5.98861 5.98836 3.72422 8.66822 4.02197L10.0005 4.17001L10.0005 4.17001C10.7455 4.25278 11.4771 3.92616 11.9128 3.31616L12.2117 2.89771ZM18.88 11.0342L14.0663 15.8479L12.3911 14.1726L12.3911 14.1726C11.583 13.3646 10.2729 13.3646 9.46482 14.1726L9.81836 14.5262L9.46481 14.1726C8.65674 14.9807 8.65674 16.2909 9.4648 17.0989L12.319 19.9531C13.2839 20.9182 14.8487 20.9182 15.8136 19.9531C15.8137 19.9531 15.8137 19.9531 15.8137 19.9531L21.8062 13.9605C22.6143 13.1525 22.6142 11.8423 21.8062 11.0343L21.5032 11.3373L21.8062 11.0342C20.9982 10.2262 19.688 10.2262 18.88 11.0342Z" fill="white" stroke="white"/>
</svg>
