<svg width="68" height="55" viewBox="0 0 68 55" fill="none" xmlns="http://www.w3.org/2000/svg">
<rect width="68" height="54.55" rx="7" fill="#5846A3" fill-opacity="0.15"/>
<g clip-path="url(#clip0_319_92)">
<path d="M16.7778 9C16.1884 9 15.6232 9.21071 15.2064 9.58579C14.7897 9.96086 14.5555 10.4696 14.5555 11V19H25.6667V9H16.7778ZM22.8889 16.5H17.3333V11.5H22.8889V16.5Z" fill="black"/>
<path d="M14.5555 42C14.5555 42.5304 14.7897 43.0391 15.2064 43.4142C15.6232 43.7893 16.1884 44 16.7778 44H25.6667V34H14.5555V42ZM17.3333 36.5H22.8889V41.5H17.3333V36.5Z" fill="black"/>
<path d="M42.3333 44H51.2222C51.8116 44 52.3768 43.7893 52.7936 43.4142C53.2103 43.0391 53.4444 42.5304 53.4444 42V34H42.3333V44ZM45.1111 36.5H50.6667V41.5H45.1111V36.5Z" fill="black"/>
<path d="M51.2222 9H42.3333V19H53.4444V11C53.4444 10.4696 53.2103 9.96086 52.7936 9.58579C52.3768 9.21071 51.8116 9 51.2222 9ZM50.6667 16.5H45.1111V11.5H50.6667V16.5Z" fill="black"/>
<path d="M36.7778 16.5V14H31.2222V19H34V16.5H36.7778Z" fill="black"/>
<path d="M28.4444 19H25.6667V21.5H28.4444V19Z" fill="black"/>
<path d="M34 21.5H28.4444V24H34V21.5Z" fill="black"/>
<path d="M36.7778 11.5V14H39.5556V9H28.4444V14H31.2222V11.5H36.7778Z" fill="black"/>
<path d="M17.3333 21.5H14.5555V26.5H17.3333V21.5Z" fill="black"/>
<path d="M25.6667 24V26.5H22.8889V21.5H20.1111V26.5H17.3333V29H14.5555V31.5H20.1111V29H22.8889V31.5H25.6667V29H28.4444V24H25.6667Z" fill="black"/>
<path d="M36.7778 24H39.5556V26.5H42.3333V24H45.1111V21.5H39.5556V16.5H36.7778V19H34V21.5H36.7778V24Z" fill="black"/>
<path d="M34 41.5H28.4444V44H39.5556V41.5H36.7778V39H34V41.5Z" fill="black"/>
<path d="M39.5556 29V26.5H36.7778V24H34V26.5H31.2222V29H34V31.5H36.7778V29H39.5556Z" fill="black"/>
<path d="M53.4444 29H50.6667V31.5H53.4444V29Z" fill="black"/>
<path d="M47.8889 29H39.5556V31.5H47.8889V29Z" fill="black"/>
<path d="M50.6667 21.5H47.8889V24H45.1111V26.5H47.8889V29H50.6667V26.5H53.4444V24H50.6667V21.5Z" fill="black"/>
<path d="M39.5556 31.5H36.7778V39H39.5556V31.5Z" fill="black"/>
<path d="M28.4444 39H31.2222V36.5H34V34H31.2222V29H28.4444V39Z" fill="black"/>
</g>
<defs>
<clipPath id="clip0_319_92">
<rect width="50" height="45" fill="white" transform="translate(9 4)"/>
</clipPath>
</defs>
</svg>
