<svg width="68" height="55" viewBox="0 0 68 55" fill="none" xmlns="http://www.w3.org/2000/svg">
<rect width="68" height="54.55" rx="7" fill="#5846A3" fill-opacity="0.15"/>
<g clip-path="url(#clip0_322_151)">
<path d="M25.6149 23.5652H20.6461V28.0375H25.6149V23.5652Z" fill="black"/>
<path d="M47.3539 23.5652H42.3851V28.0375H47.3539V23.5652Z" fill="black"/>
<path d="M40.1077 23.5652H35.1389V28.0375H40.1077V23.5652Z" fill="black"/>
<path d="M25.6149 30.5527H20.6461V35.025H25.6149V30.5527Z" fill="black"/>
<path d="M40.1077 30.5527H35.1389V35.025H40.1077V30.5527Z" fill="black"/>
<path d="M32.8614 30.5527H27.8926V35.025H32.8614V30.5527Z" fill="black"/>
<path d="M47.3539 37.54H42.3851V42.0124H47.3539V37.54Z" fill="black"/>
<path d="M40.1077 37.54H35.1389V42.0124H40.1077V37.54Z" fill="black"/>
<path d="M32.8614 37.54H27.8926V42.0124H32.8614V37.54Z" fill="black"/>
<path d="M51.8981 8.83813H47.8575V12.3248C47.8575 13.6257 46.6666 14.6837 45.2029 14.6837H39.9271C38.4634 14.6837 37.2726 13.6257 37.2726 12.3248V8.83813H30.7204V12.292C30.7204 13.611 29.5164 14.6837 28.0364 14.6837H22.8192C21.3393 14.6837 20.1353 13.611 20.1353 12.292V8.83813H16.0946C13.4671 8.83813 11.3294 10.7447 11.3294 13.088V44.7502C11.3294 47.0935 13.4671 49.0001 16.0946 49.0001H51.8981C54.5297 49.0001 56.6706 47.0936 56.6706 44.7502V13.088C56.6706 10.7447 54.5297 8.83813 51.8981 8.83813ZM53.2546 44.6677C53.2546 45.4201 52.693 45.9253 51.857 45.9253H16.143C15.307 45.9253 14.7454 45.4201 14.7454 44.6677V19.6525H53.2546V44.6677Z" fill="black"/>
<path d="M22.8208 13.0094H28.0349C28.4764 13.0094 28.8355 12.6883 28.8355 12.2936V5.80114C28.8355 4.80798 27.9303 4 26.8174 4H24.0382C22.9254 4 22.0198 4.80789 22.0198 5.80114V12.2936C22.0199 12.6883 22.3791 13.0094 22.8208 13.0094Z" fill="black"/>
<path d="M39.9271 13.0094H45.2029C45.6275 13.0094 45.9729 12.7006 45.9729 12.3216V5.77346C45.9729 4.79567 45.0814 4 43.9855 4H41.1445C40.0487 4 39.1573 4.79567 39.1573 5.77346V12.3216C39.1572 12.7006 39.5026 13.0094 39.9271 13.0094Z" fill="black"/>
</g>
<defs>
<clipPath id="clip0_322_151">
<rect width="50" height="45" fill="white" transform="translate(9 4)"/>
</clipPath>
</defs>
</svg>
