<svg width="68" height="55" viewBox="0 0 68 55" fill="none" xmlns="http://www.w3.org/2000/svg">
<rect width="68" height="54.55" rx="7" fill="#5846A3" fill-opacity="0.15"/>
<g clip-path="url(#clip0_322_177)">
<path d="M58.2171 17.1796C58.6495 17.1796 59 16.8642 59 16.475V9.71083C59 7.66474 57.1503 6 54.8769 6H13.1231C10.8497 6 9 7.66474 9 9.71083V36.7672C9 38.8134 10.8497 40.478 13.1231 40.478H17.2985C17.7309 40.478 18.0814 40.1626 18.0814 39.7734C18.0814 39.3842 17.731 39.0688 17.2985 39.0688H13.1231C11.713 39.0688 10.5657 38.0363 10.5657 36.7671V36.7201H57.4342V36.7671C57.4342 38.0363 56.287 39.0688 54.8768 39.0688H20.6389C20.2065 39.0688 19.856 39.3841 19.856 39.7734C19.856 40.1626 20.2064 40.478 20.6389 40.478H28.8867L27.6531 46.5845H26.4844C25.1317 46.5845 24.0313 47.5748 24.0313 48.7922V50.2953C24.0313 50.6845 24.3818 50.9999 24.8143 50.9999H43.1858C43.6183 50.9999 43.9687 50.6846 43.9687 50.2953V48.7922C43.9687 47.5748 42.8684 46.5845 41.5157 46.5845H40.3472L39.1136 40.478H54.877C57.1505 40.478 59.0001 38.8133 59.0001 36.7672V19.4815C59.0001 19.0923 58.6497 18.7768 58.2172 18.7768C57.7848 18.7768 57.4343 19.0922 57.4343 19.4815V35.311H10.5657V11.167H57.4342V16.4751C57.4343 16.8642 57.7847 17.1796 58.2171 17.1796ZM30.4779 40.4781H37.5219L38.7556 46.5846H29.2443L30.4779 40.4781ZM41.5156 47.9937C42.0049 47.9937 42.4029 48.3519 42.4029 48.7923V49.5909H25.5971V48.7923C25.5971 48.3519 25.9951 47.9937 26.4844 47.9937H41.5156ZM10.5657 9.75785V9.71092C10.5657 8.44169 11.713 7.40924 13.1231 7.40924H54.8768C56.287 7.40924 57.4342 8.44169 57.4342 9.71092V9.75785H10.5657Z" fill="black"/>
<path d="M52.3716 13.5155H51.7564L52.09 13.2153C52.3958 12.94 52.3958 12.494 52.09 12.2188C51.7842 11.9437 51.2886 11.9437 50.9828 12.2188L49.8663 13.2237L48.7498 12.2188C48.4439 11.9437 47.9483 11.9437 47.6426 12.2188C47.3368 12.494 47.3368 12.9401 47.6426 13.2153L47.9762 13.5155H47.361C46.9286 13.5155 46.5781 13.8309 46.5781 14.2201V18.0249H34.835C32.1012 18.0249 29.8768 20.0268 29.8768 22.4873C29.8768 24.9478 32.1012 26.9497 34.835 26.9497H46.5261C48.3968 26.9497 49.9185 28.3193 49.9185 30.0029C49.9185 31.6865 48.3968 33.0561 46.5261 33.0561H23.1018C23.7382 32.3188 24.5961 31.2892 25.462 30.1406C27.7681 27.0817 28.9374 24.7596 28.9374 23.2389C28.9374 19.5351 25.5892 16.5217 21.4739 16.5217C17.3586 16.5217 14.0104 19.5351 14.0104 23.2389C14.0104 24.7596 15.1798 27.0817 17.4858 30.1406C19.1429 32.3386 20.7718 34.1032 20.8696 34.2087C21.0383 34.3605 21.2267 34.4653 21.4739 34.4653H46.5261C49.2599 34.4653 51.4843 32.4634 51.4843 30.0029C51.4843 27.5424 49.2599 25.5405 46.5261 25.5405H34.835C32.9644 25.5405 31.4426 24.1709 31.4426 22.4873C31.4426 20.8037 32.9644 19.4341 34.835 19.4341H47.3611H52.3716C52.804 19.4341 53.1545 19.1187 53.1545 18.7294V14.2201C53.1545 13.831 52.8041 13.5155 52.3716 13.5155ZM15.5762 23.2389C15.5762 20.3122 18.2219 17.931 21.4739 17.931C24.726 17.931 27.3716 20.3121 27.3716 23.2389C27.3716 25.5077 23.547 30.3006 21.4739 32.6444C19.4009 30.3005 15.5762 25.5077 15.5762 23.2389ZM48.144 14.9248H49.0835V15.7703H48.144V14.9248ZM48.144 18.0249V17.1794H49.0835V17.978C49.0835 17.9939 49.0849 18.0094 49.0861 18.0249H48.144ZM51.5888 18.0249H50.6467C50.6478 18.0094 50.6493 17.9938 50.6493 17.978V17.1794H51.5366C51.5543 17.1794 51.5715 17.1781 51.5888 17.177V18.0249ZM51.5888 15.7726C51.5715 15.7716 51.5542 15.7703 51.5366 15.7703H50.6493V14.9248H51.5888V15.7726Z" fill="black"/>
<path d="M21.4739 19.5283C19.2004 19.5283 17.3508 21.1931 17.3508 23.2391C17.3508 25.2852 19.2005 26.95 21.4739 26.95C23.7474 26.95 25.5971 25.2852 25.5971 23.2391C25.5971 21.1931 23.7474 19.5283 21.4739 19.5283ZM21.4739 25.5408C20.0638 25.5408 18.9165 24.5084 18.9165 23.2391C18.9165 21.9699 20.0638 20.9375 21.4739 20.9375C22.8841 20.9375 24.0313 21.9699 24.0313 23.2391C24.0313 24.5084 22.884 25.5408 21.4739 25.5408Z" fill="black"/>
</g>
<defs>
<clipPath id="clip0_322_177">
<rect width="50" height="45" fill="white" transform="translate(9 6)"/>
</clipPath>
</defs>
</svg>
